<svg width="32" height="32" viewBox="0 0 32 32" fill="none" xmlns="http://www.w3.org/2000/svg">
<path d="M0.799988 4.63419V27.3659C0.799988 29.5116 2.48847 31.2 4.63413 31.2H27.3658C28.416 31.2 29.4195 30.6976 30.0592 30.0593C30.7443 29.3743 31.2 28.5067 31.2 27.3659V4.63419C31.2 2.48853 29.5115 0.800049 27.3658 0.800049H4.63413C3.49338 0.800049 2.62577 1.25722 1.94074 1.9408C1.30098 2.58055 0.799988 3.584 0.799988 4.63419ZM4.90873 7.646C4.90873 6.18538 6.09622 4.90733 7.55684 4.90733C9.06275 4.90733 10.2955 6.18538 10.2955 7.646C10.2955 9.15191 9.06275 10.3394 7.55684 10.3394C6.09622 10.3394 4.90873 9.15191 4.90873 7.646ZM12.2571 26.4063V12.4851C12.2571 12.1652 12.577 11.892 12.8049 11.892H16.6843C17.232 11.892 17.232 12.5318 17.232 12.9422C18.3275 11.8468 19.7428 11.5722 21.2035 11.5722C24.7645 11.5722 27.046 13.2606 27.046 17.0042V26.4077C27.046 26.7276 26.7714 27.0007 26.4982 27.0007H22.4815C22.1616 27.0007 21.9338 26.6809 21.9338 26.4077V17.9171C21.9338 16.5018 21.5233 15.7262 19.9254 15.7262C17.9171 15.7262 17.4146 17.0495 17.4146 18.83V26.4077C17.4146 26.7276 17.0947 27.0007 16.7748 27.0007H12.8034C12.5756 27.0007 12.2557 26.6809 12.2557 26.4077L12.2571 26.4063ZM4.99929 26.4063V12.4851C4.99929 12.1652 5.31916 11.892 5.54702 11.892H9.51846C9.88362 11.892 10.1115 12.1199 10.1115 12.4851V26.4063C10.1115 26.7262 9.83688 26.9993 9.51846 26.9993H5.54702C5.27242 26.9993 4.99929 26.6794 4.99929 26.4063Z" fill="white"/>
</svg>
